<?xml version="1.0" encoding="utf-8"?><svg width="123" height="40" viewBox="0 0 123 40" fill="none" xmlns="http://www.w3.org/2000/svg">
<path d="M21.1765 0H1.0084C0.420168 0 0 0.420168 0 1.0084V34.0336C0 34.6218 0.420168 35.042 1.0084 35.042H21.1765C21.7647 35.042 22.1849 34.6218 22.1849 34.0336V1.0084C22.1849 0.420168 21.6807 0 21.1765 0ZM20.084 33.0252H2.01681V2.01681H20.084V33.0252Z" fill="#2B363C"/>
<path d="M25.8825 4.36963H7.81523C7.22699 4.36963 6.80682 4.7898 6.80682 5.37803V29.9999C6.80682 30.5881 7.22699 31.0083 7.81523 31.0083H25.8825C26.4707 31.0083 26.8909 30.5881 26.8909 29.9999V5.37803C26.8909 4.7898 26.4707 4.36963 25.8825 4.36963ZM24.8741 28.9074H8.90766V6.38644H24.8741V28.9074Z" fill="#2B363C"/>
<path d="M30.1681 8.15112H14.7059C14.1177 8.15112 13.6975 8.57129 13.6975 9.15953V25.378C13.6975 25.9662 14.1177 26.3864 14.7059 26.3864H30.1681C30.7563 26.3864 31.1765 25.9662 31.1765 25.378V9.15953C31.1765 8.57129 30.7563 8.15112 30.1681 8.15112ZM29.1597 24.2856H15.7143V10.1679H29.1597V24.2856Z" fill="#2B363C"/>
<path d="M43.1933 30.5883C43.1933 31.3446 42.605 32.0168 41.7647 32.0168C41.0084 32.0168 40.3361 31.4286 40.3361 30.5883V5.12608C40.3361 4.36978 40.9244 3.69751 41.7647 3.69751H55.126C55.7983 3.69751 56.3865 4.28575 56.3865 4.95801C56.3865 5.63028 55.7983 6.21852 55.126 6.21852H43.1933V16.5547H52.3529C53.0252 16.5547 53.6134 17.1429 53.6134 17.8152C53.6134 18.4874 53.0252 19.0757 52.3529 19.0757H43.1933V30.5883Z" fill="#2B363C"/>
<path d="M75.042 22.1848C75.042 28.9915 71.6806 32.1848 66.3025 32.1848C60.9243 32.1848 57.563 28.9915 57.563 22.1848C57.563 15.3781 60.9243 12.1848 66.3025 12.1848C71.6806 12.1848 75.042 15.3781 75.042 22.1848ZM72.2689 22.1848C72.2689 16.9747 70.084 14.6218 66.2185 14.6218C62.3529 14.6218 60.168 16.9747 60.168 22.1848C60.168 27.4789 62.3529 29.7478 66.2185 29.7478C70.084 29.7478 72.2689 27.4789 72.2689 22.1848Z" fill="#2B363C"/>
<path d="M83.5293 30.8401L76.5545 14.3695C76.5545 14.2855 76.4705 14.1174 76.4705 13.7813C76.4705 13.025 77.0587 12.4368 77.815 12.4368C78.5713 12.4368 78.9075 12.8569 79.0755 13.2771L84.9579 27.6469L90.8402 13.2771C91.0083 12.8569 91.3444 12.4368 92.1007 12.4368C92.857 12.4368 93.4453 13.025 93.4453 13.7813C93.4453 14.0334 93.3612 14.2015 93.3612 14.3695L85.21 33.8653C83.5293 37.899 81.4285 39.9998 77.4789 39.9998C76.8066 39.9998 76.2184 39.4956 76.2184 38.7393C76.2184 37.983 76.7226 37.4788 77.4789 37.4788C80.9243 37.4788 81.8486 35.0418 83.5293 30.8401Z" fill="#2B363C"/>
<path d="M99.4118 15.6301C100.252 13.6974 102.353 12.2688 105.21 12.2688C105.882 12.2688 106.471 12.857 106.471 13.5293C106.471 14.2016 105.882 14.7898 105.21 14.7898C101.429 14.7898 99.4118 17.4789 99.4118 21.2604V30.5881C99.4118 31.3444 98.8236 31.9327 98.0673 31.9327C97.311 31.9327 96.7227 31.3444 96.7227 30.5881V13.7814C96.7227 13.0251 97.311 12.4369 98.0673 12.4369C98.8236 12.4369 99.4118 13.0251 99.4118 13.7814V15.6301Z" fill="#2B363C"/>
<path d="M115.546 19.9159C111.597 19.9159 108.319 16.6386 108.319 12.689C108.319 8.73947 111.597 5.46216 115.546 5.46216C119.496 5.46216 122.773 8.73947 122.773 12.689C122.773 16.6386 119.496 19.9159 115.546 19.9159ZM115.546 6.38653C112.101 6.38653 109.244 9.15964 109.244 12.689C109.244 16.2185 112.017 18.9916 115.546 18.9916C118.991 18.9916 121.849 16.2185 121.849 12.689C121.849 9.15964 118.991 6.38653 115.546 6.38653Z" fill="#2B363C"/>
<path d="M114.034 16.8067C114.034 17.0588 113.866 17.2269 113.613 17.2269C113.361 17.2269 113.193 17.0588 113.193 16.8067V8.7395C113.193 8.4874 113.361 8.31934 113.613 8.31934H116.218C117.647 8.31934 118.739 9.41177 118.739 10.8403C118.739 12.1849 117.815 13.2773 116.387 13.3614L118.823 16.5546C118.908 16.6387 118.908 16.7227 118.908 16.8067C118.908 17.0588 118.739 17.2269 118.487 17.2269C118.319 17.2269 118.235 17.1429 118.067 16.9748L115.378 13.2773H114.034V16.8067ZM114.034 12.521H116.218C117.143 12.521 117.815 11.7647 117.815 10.8403C117.815 9.83194 117.143 9.15967 116.218 9.15967H114.034V12.521Z" fill="#2B363C"/>
</svg>
